# AST/ASF file generated using VICON BodyLanguage
# -----------------------------------------------
:version 1.10
:name VICON
:units
  mass 1.0
  length 0.45
  angle deg
:documentation
   .ast/.asf automatically generated from VICON data using
   VICON BodyBuilder and BodyLanguage model FoxedUp or BRILLIANT.MOD
:root
   order TX TY TZ RX RY RZ
   axis XYZ
   position 0 0 0  
   orientation 0 0 0 
:bonedata
  begin
     id 1 
     name lhipjoint
     direction 0.62366 -0.717238 0.310833 
     length 2.53602 
     axis 0 0 0  XYZ
  end
  begin
     id 2 
     name lfemur
     direction 0.34202 -0.939693 0  
     length 7.40817  
     axis 0 0 20  XYZ
    dof rx ry rz
    limits (-160.0 20.0)
           (-70.0 70.0)
           (-60.0 70.0)
  end
  begin
     id 3 
     name ltibia
     direction 0.34202 -0.939693 0   
     length 7.7045   
     axis 0 0 20   XYZ
    dof rx
    limits (-10.0 170.0)
  end
  begin
     id 4 
     name lfoot
     direction 0.0673888 -0.185149 0.980397   
     length 2.09456   
     axis -90 7.62852e-016 20   XYZ
    dof rx rz
    limits (-45.0 90.0)
           (-70.0 20.0)
  end
  begin
     id 5 
     name ltoes
     direction 1.53575e-011 -4.21994e-011 1   
     length 1.05543   
     axis -90 7.62852e-016 20   XYZ
    dof rx
    limits (-90.0 20.0)
  end
  begin
     id 6 
     name rhipjoint
     direction -0.489018 -0.800347 0.346851   
     length 2.27268  
     axis 0 0 0  XYZ 
  end
  begin
     id 7 
     name rfemur
     direction -0.34202 -0.939693 0   
     length 7.55487   
     axis 0 0 -20   XYZ
    dof rx ry rz
    limits (-160.0 20.0)
           (-70.0 70.0)
           (-70.0 60.0)
  end
  begin
     id 8 
     name rtibia
     direction -0.34202 -0.939693 0   
     length 7.78969   
     axis 0 0 -20   XYZ
    dof rx
    limits (-10.0 170.0)
 end
 begin
     id 9 
     name rfoot
     direction -0.0859318 -0.236096 0.967923   
     length 2.19143  
     axis -90 -7.62852e-016 -20   XYZ
    dof rx rz
    limits (-45.0 90.0)
           (-20.0 70.0)
  end
  begin
     id 10 
     name rtoes
     direction -1.53538e-011 -4.21989e-011 1   
     length 1.09845   
     axis -90 -7.62852e-016 -20   XYZ
    dof rx
    limits (-90.0 20.0)
  end
  begin
     id 11 
     name lowerback
     direction -0.00762546 0.998978 -0.0445553   
     length 1.98161   
     axis 0 0 0   XYZ
    dof rx ry rz
    limits (-20.0 45.0)
           (-30.0 30.0)
           (-30.0 30.0)
  end
  begin
     id 12 
     name upperback
     direction 0.0422361 0.998867 -0.0219156   
     length 1.97558   
     axis 0 0 0   XYZ
    dof rx ry rz
    limits (-20.0 45.0)
           (-30.0 30.0)
           (-30.0 30.0)
  end
  begin
     id 13 
     name thorax
     direction 0.0442465 0.999021 7.47603e-005   
     length 1.97799   
     axis 0 0 0   XYZ
    dof rx ry rz
    limits (-20.0 45.0)
           (-30.0 30.0)
           (-30.0 30.0)
  end
  begin
     id 14 
     name lowerneck
     direction 0.00312169 0.984641 0.174564   
     length 1.78995   
     axis 0 0 0   XYZ
    dof rx ry rz
    limits (-20.0 45.0)
           (-30.0 30.0)
           (-30.0 30.0)
  end
  begin
     id 15 
     name upperneck
     direction -0.0383028 0.985255 -0.166749   
     length 1.83053   
     axis 0 0 0   XYZ
    dof rx ry rz
    limits (-20.0 45.0)
           (-30.0 30.0)
           (-30.0 30.0)
  end
  begin
     id 16
     name head
     direction -0.0129546 0.997059 -0.0755386  
     length 1.84088  
     axis 0 0 0   XYZ
    dof rx ry rz
    limits (-20.0 45.0)
           (-30.0 30.0)
           (-30.0 30.0)
  end
  begin
     id 17 
     name lclavicle
     direction 0.912857 0.370519 -0.171488  
     length 3.51279  
     axis 0 0 0   XYZ
    dof ry rz
    limits (-20.0 10.0)
           (0.0 20.0)
  end
  begin
     id 18 
     name lhumerus
     direction 1 -4.48962e-011 3.64361e-027   
     length 4.95663   
     axis 180 -30 -90   XYZ
    dof rx ry rz
    limits (-60.0 90.0)
           (-90.0 90.0)
           (-90.0 90.0)
  end
  begin
     id 19
     name lradius
     direction 1 -4.48974e-011 5.97202e-027   
     length 3.38177   
     axis 180 -30 -90   XYZ
    dof rx
    limits (-10.0 170.0)
  end
  begin
     id 20
     name lwrist
     direction 1 -4.4896e-011 9.83288e-027   
     length 1.69088   
     axis -9.31221e-015 90 90   XYZ
    dof ry
    limits (-180.0 0.0)
 end
  begin
     id 21 
     name lhand
     direction 1 -4.4902e-011 1.96551e-026   
     length 0.662909   
     axis -1.25475e-014 90 90   XYZ
    dof rx rz
    limits (-90.0 90.0)
           (-45.0 45.0)
  end
  begin
     id 22 
     name lfingers
     direction 1 -4.48971e-011 3.93277e-026   
     length 0.534454   
     axis -2.50945e-014 90 90   XYZ
    dof rx
    limits (0.0 90.0)
  end
  begin
     id 23
     name lthumb
     direction 0.707107 -6.34933e-011 0.707107   
     length 0.767373   
     axis -90 45 -4.80359e-014   XYZ
    dof rx rz
    limits (-45.0 45.0)
           (-45.0 45.0)
  end
  begin
     id 24 
     name rclavicle
     direction -0.900919 0.395364 -0.178976   
     length 3.40627  
     axis 0 0 0   XYZ 
    dof ry rz
    limits (-10.0 20.0)
           (-20.0 0.0)
  end
  begin
     id 25 
     name rhumerus
     direction -1 -4.48969e-011 1.03875e-027  
     length 5.08365   
     axis 180 30 90   XYZ
    dof rx ry rz
    limits (-90.0 60.0)
           (-90.0 90.0)
           (-90.0 90.0)
  end
  begin
     id 26 
     name rradius
     direction -1 -4.48951e-011 5.02733e-027   
     length 3.35984   
     axis 180 30 90   XYZ
    dof rx
    limits (-10.0 170.0)
  end
  begin
     id 27 
     name rwrist
     direction -1 -4.49011e-011 9.82828e-027   
     length 1.67992   
     axis -9.31221e-015 -90 -90   XYZ
    dof ry
    limits (-180.0 0.0)
  end
  begin
     id 28
     name rhand
     direction -1 -4.48894e-011 1.96774e-026   
     length 0.820764   
     axis -1.25475e-014 -90 -90   XYZ
    dof rx rz
    limits (-90.0 90.0)
           (-45.0 45.0)
  end
  begin
     id 29
     name rfingers
     direction -1 -4.49095e-011 3.92833e-026   
     length 0.661721   
     axis -2.50945e-014 -90 -90   XYZ
    dof rx
    limits (0.0 90.0)
  end
  begin
     id 30
     name rthumb
     direction -0.707107 -6.34881e-011 0.707107   
     length 0.950103   
     axis -90 -45 4.80359e-014   XYZ
    dof rx rz
    limits (-45.0 45.0)
           (-45.0 45.0)
  end
:hierarchy
  begin
    root lhipjoint rhipjoint lowerback
    lhipjoint lfemur
    lfemur ltibia
    ltibia lfoot
    lfoot ltoes
    rhipjoint rfemur
    rfemur rtibia
    rtibia rfoot
    rfoot rtoes
    lowerback upperback
    upperback thorax
    thorax lowerneck lclavicle rclavicle
    lowerneck upperneck
    upperneck head
    lclavicle lhumerus
    lhumerus lradius
    lradius lwrist
    lwrist lhand lthumb
    lhand lfingers
    rclavicle rhumerus
    rhumerus rradius
    rradius rwrist
    rwrist rhand rthumb
    rhand rfingers
  end

#!OML:ASF I:\golf\golf\golf 2\Subject 1\2002-09-07\Subject1.ASF
:FULLY-SPECIFIED
:DEGREES
109
root -5.76636 17.8797 1.66867 -76.4371 86.077 -93.9278
lowerback 4.38042 1.71291 -1.19864
upperback 3.18498 2.38121 5.07462
thorax 0.564165 1.19248 5.83801
lowerneck -17.1009 -1.58564 1.912
upperneck 40.9644 1.59083 -6.13443
head 18.3256 0.674687 -2.73139
rclavicle -3.93594e-014 -8.26944e-014
rhumerus -4.57413 -2.20658 -101.154
rradius 20.7985
rwrist -33.0626
rhand -14.9114 -6.44097
rfingers 7.12502
rthumb 11.2502 -36.1193
lclavicle -3.93594e-014 -8.26944e-014
lhumerus -11.2075 -43.9636 111.058
lradius 27.8848
lwrist 45.77
lhand -13.7029 68.5659
lfingers 7.12502
lthumb -167.584 81.8228
rfemur -28.9711 0.0512046 12.8991
rtibia 28.0329
rfoot -11.6116 -9.11018
rtoes 24.9863
lfemur -31.0229 5.42208 -9.4504
ltibia 30.4796
lfoot -11.5007 0.614732
ltoes -24.1093
110
root -5.76589 17.8795 1.6676 -76.5548 86.1342 -94.046
lowerback 4.3971 1.72478 -1.22685
upperback 3.16928 2.39564 5.05287
thorax 0.536818 1.19971 5.82954
lowerneck -17.075 -1.61633 1.85098
upperneck 40.9609 1.54955 -6.0924
head 18.3126 0.655144 -2.70751
rclavicle -1.63003e-014 -1.90833e-014
rhumerus -4.56944 -2.43982 -101.164
rradius 20.763
rwrist -32.8308
rhand -14.8233 -6.39117
rfingers 7.12502
rthumb 11.3352 -36.0648
lclavicle -1.63003e-014 -1.90833e-014
lhumerus -11.2652 -43.979 111.115
lradius 27.9036
lwrist 45.7473
lhand -13.7643 68.5508
lfingers 7.12502
lthumb -167.644 81.8344
rfemur -28.9731 -0.0558181 12.854
rtibia 28.0421
rfoot -11.5579 -9.01058
rtoes 24.9623
lfemur -31.0211 5.38084 -9.50965
ltibia 30.4699
lfoot -11.5048 0.597662
ltoes -23.7957
111
root -5.76475 17.8791 1.66901 -75.9017 86.1806 -93.3903
lowerback 4.41415 1.7358 -1.34148
upperback 3.15136 2.4066 5.0611
thorax 0.50297 1.20414 5.90233
lowerneck -17.0377 -1.62494 1.8306
upperneck 40.9471 1.554 -6.11525
head 18.2949 0.651225 -2.71241
rclavicle -1.07344e-014 -3.33958e-014
rhumerus -4.62721 -2.45333 -101.163
rradius 20.7816
rwrist -32.7645
rhand -14.7211 -6.35489
rfingers 7.12502
rthumb 11.4337 -36.0231
lclavicle -1.07344e-014 -3.33958e-014
lhumerus -11.3028 -43.8487 111.154
lradius 27.8799
lwrist 45.6402
lhand -13.6748 68.4983
lfingers 7.12502
lthumb -167.557 81.8921
rfemur -28.9817 -0.0786048 12.8094
rtibia 28.0478
rfoot -11.3935 -8.9619
rtoes 24.154
lfemur -30.9944 5.42554 -9.56967
ltibia 30.4537
lfoot -11.5327 0.567876
ltoes -23.6743
112
root -5.76406 17.879 1.67007 -75.742 86.187 -93.2165
lowerback 4.44029 1.75851 -1.40432
upperback 3.15022 2.43543 5.07412
thorax 0.481076 1.2182 5.9498
lowerneck -17.0657 -1.64004 1.81596
upperneck 40.9708 1.53873 -6.11239
head 18.3156 0.643893 -2.71274
rclavicle -2.38542e-015 5.64548e-014
rhumerus -4.6445 -2.44998 -101.147
rradius 20.8115
rwrist -32.8115
rhand -14.7926 -6.44456
rfingers 7.12502
rthumb 11.3648 -36.1166
lclavicle -2.38542e-015 5.64548e-014
lhumerus -11.2943 -43.7955 111.18
lradius 27.8167
lwrist 45.5955
lhand -13.511 68.3634
lfingers 7.12502
lthumb -167.399 82.0366
rfemur -28.9609 -0.0336165 12.794
rtibia 28.0448
rfoot -11.4437 -9.05686
rtoes 23.8024
lfemur -30.9637 5.47446 -9.58895
ltibia 30.4354
lfoot -11.5605 0.562288
ltoes -23.9459
113
root -5.76401 17.8787 1.66978 -75.9448 86.191 -93.382
lowerback 4.49397 1.77387 -1.39143
upperback 3.16335 2.45689 5.06372
thorax 0.463156 1.22949 5.92888
lowerneck -17.1151 -1.64848 1.81114
upperneck 40.9898 1.52525 -6.10358
head 18.3394 0.638759 -2.71199
rclavicle -1.74931e-014 -6.12257e-014
rhumerus -4.64387 -2.395 -101.137
rradius 20.8684
rwrist -32.9843
rhand -14.9795 -6.56056
rfingers 7.12502
rthumb 11.1845 -36.2424
lclavicle -1.74931e-014 -6.12257e-014
lhumerus -11.2912 -43.943 111.176
lradius 27.8219
lwrist 45.7314
lhand -13.5306 68.3098
lfingers 7.12502
lthumb -167.418 82.089
rfemur -28.8998 -0.00891819 12.7796
rtibia 28.0257
rfoot -11.5521 -9.23681
rtoes 23.4301
lfemur -30.919 5.46281 -9.59204
ltibia 30.4215
lfoot -11.5694 0.578376
ltoes -24.2099
114
root -5.76425 17.8789 1.6682 -76.523 86.2195 -93.9224
lowerback 4.54507 1.75357 -1.37078
upperback 3.17624 2.43065 5.04478
thorax 0.45248 1.21672 5.89695
lowerneck -17.1521 -1.63963 1.82282
upperneck 41.0068 1.5398 -6.11302
head 18.3611 0.644736 -2.71726
rclavicle -6.75868e-015 1.90833e-014
rhumerus -4.63815 -2.41324 -101.169
rradius 20.8741
rwrist -33.0465
rhand -14.7986 -6.47431
rfingers 7.12502
rthumb 11.3589 -36.1467
lclavicle -6.75868e-015 1.90833e-014
lhumerus -11.3255 -44.1857 111.124
lradius 27.9455
lwrist 45.9699
lhand -13.6652 68.3703
lfingers 7.12502
lthumb -167.548 82.0206
rfemur -28.8358 -0.0241746 12.7403
rtibia 27.9951
rfoot -11.5797 -9.31827
rtoes 23.2518
lfemur -30.8837 5.40678 -9.61548
ltibia 30.4066
lfoot -11.5386 0.552581
ltoes -24.0891
115
root -5.76412 17.881 1.66665 -77.4518 86.2096 -94.8524
lowerback 4.54646 1.72336 -1.32574
upperback 3.18111 2.39218 5.04491
thorax 0.462756 1.19792 5.87328
lowerneck -17.199 -1.63513 1.7897
upperneck 41.0481 1.54423 -6.0677
head 18.3985 0.647546 -2.69141
rclavicle 5.1684e-015 5.24792e-014
rhumerus -4.60779 -2.537 -101.207
rradius 20.8321
rwrist -32.9416
rhand -14.6036 -6.35348
rfingers 7.12502
rthumb 11.547 -36.0154
lclavicle 5.1684e-015 5.24792e-014
lhumerus -11.3184 -44.2456 111.069
lradius 27.9924
lwrist 46.0377
lhand -13.7148 68.4149
lfingers 7.12502
lthumb -167.596 81.9731
rfemur -28.807 -0.0180289 12.7456
rtibia 27.9648
rfoot -11.6206 -9.37363
rtoes 23.3785
lfemur -30.8923 5.3581 -9.59358
ltibia 30.3875
lfoot -11.5144 0.493751
ltoes -23.7819
116
root -5.76336 17.8833 1.66713 -77.7542 86.1863 -95.1633
lowerback 4.53936 1.72505 -1.31118
upperback 3.18388 2.39534 5.05571
thorax 0.469341 1.19969 5.87651
lowerneck -17.2186 -1.64621 1.76705
upperneck 41.0432 1.52586 -6.05056
head 18.3992 0.638249 -2.6829
rclavicle -6.36111e-015 1.82882e-014
rhumerus -4.60387 -2.57537 -101.184
rradius 20.8361
rwrist -32.9082
rhand -14.6078 -6.34064
rfingers 7.12502
rthumb 11.543 -36.0028
lclavicle -6.36111e-015 1.82882e-014
lhumerus -11.2733 -44.1314 111.07
lradius 27.9172
lwrist 45.8914
lhand -13.6442 68.3798
lfingers 7.12502
lthumb -167.528 82.0124
rfemur -28.7918 0.0085909 12.7742
rtibia 27.9383
rfoot -11.5875 -9.4509
rtoes 23.2458
lfemur -30.8936 5.33236 -9.55097
ltibia 30.3737
lfoot -11.5041 0.474453
ltoes -23.6968
117
root -5.76279 17.8833 1.66775 -77.6928 86.1864 -95.0868
lowerback 4.5546 1.7301 -1.34836
upperback 3.19086 2.40149 5.07432
thorax 0.465276 1.2024 5.91686
lowerneck -17.1889 -1.64876 1.76085
upperneck 40.9906 1.52659 -6.07484
head 18.3599 0.632939 -2.69051
rclavicle 3.18055e-014 5.00937e-014
rhumerus -4.6359 -2.43936 -101.132
rradius 20.876
rwrist -33.0457
rhand -14.5615 -6.37878
rfingers 7.12502
rthumb 11.5877 -36.0384
lclavicle 3.18055e-014 5.00937e-014
lhumerus -11.28 -44.1406 111.095
lradius 27.9156
lwrist 45.8493
lhand -13.5755 68.3184
lfingers 7.12502
lthumb -167.462 82.0778
rfemur -28.7608 -0.0126327 12.7852
rtibia 27.9135
rfoot -11.5984 -9.45673
rtoes 23.5015
lfemur -30.8685 5.36284 -9.56004
ltibia 30.3608
lfoot -11.4912 0.472446
ltoes -24.0548
118
root -5.7628 17.8829 1.66662 -77.7267 86.1978 -95.1188
lowerback 4.55669 1.72463 -1.37087
upperback 3.19406 2.39347 5.0793
thorax 0.467309 1.19798 5.93543
lowerneck -17.1806 -1.64558 1.75371
upperneck 40.9776 1.53168 -6.0742
head 18.3502 0.633485 -2.68725
rclavicle 2.38542e-015 2.94201e-014
rhumerus -4.65806 -2.34804 -101.12
rradius 20.9095
rwrist -33.1134
rhand -14.5612 -6.44147
rfingers 7.12502
rthumb 11.5879 -36.1011
lclavicle 2.38542e-015 2.94201e-014
lhumerus -11.3002 -44.2279 111.086
lradius 27.9578
lwrist 45.9063
lhand -13.5837 68.3203
lfingers 7.12502
lthumb -167.47 82.0754
rfemur -28.7456 -0.0553396 12.778
rtibia 27.8945
rfoot -11.7008 -9.42757
rtoes 24.065
lfemur -30.8508 5.39405 -9.59117
ltibia 30.3351
lfoot -11.4955 0.471013
ltoes -24.405
